<?xml version="1.0" encoding="UTF-8" standalone="no"?>
<svg
   xmlns:dc="http://purl.org/dc/elements/1.1/"
   xmlns:cc="http://creativecommons.org/ns#"
   xmlns:rdf="http://www.w3.org/1999/02/22-rdf-syntax-ns#"
   xmlns:svg="http://www.w3.org/2000/svg"
   xmlns="http://www.w3.org/2000/svg"
   xmlns:sodipodi="http://sodipodi.sourceforge.net/DTD/sodipodi-0.dtd"
   xmlns:inkscape="http://www.inkscape.org/namespaces/inkscape"
   id="Layer_1"
   data-name="Layer 1"
   viewBox="0 0 663.19551 301.05207"
   version="1.1"
   inkscape:version="0.92.3 (2405546, 2018-03-11)"
   sodipodi:docname="Diag4-complexInvolve.svg"
   width="663.1955"
   height="301.05206">
  <metadata
     id="metadata217">
    <rdf:RDF>
      <cc:Work
         rdf:about="">
        <dc:format>image/svg+xml</dc:format>
        <dc:type
           rdf:resource="http://purl.org/dc/dcmitype/StillImage" />
        <dc:title>Artboard 1 copy</dc:title>
      </cc:Work>
    </rdf:RDF>
  </metadata>
  <sodipodi:namedview
     pagecolor="#ffffff"
     bordercolor="#666666"
     borderopacity="1"
     objecttolerance="10"
     gridtolerance="10"
     guidetolerance="10"
     inkscape:pageopacity="0"
     inkscape:pageshadow="2"
     inkscape:window-width="1853"
     inkscape:window-height="1025"
     id="namedview215"
     showgrid="false"
     inkscape:zoom="1.4254587"
     inkscape:cx="231.51363"
     inkscape:cy="70.540614"
     inkscape:window-x="1987"
     inkscape:window-y="27"
     inkscape:window-maximized="1"
     inkscape:current-layer="Layer_1"
     inkscape:snap-text-baseline="true"
     inkscape:snap-center="true"
     inkscape:snap-object-midpoints="true"
     inkscape:snap-others="true"
     inkscape:snap-bbox="true"
     inkscape:snap-bbox-edge-midpoints="true"
     fit-margin-top="0"
     fit-margin-right="0"
     fit-margin-bottom="0"
     fit-margin-left="0"
     inkscape:bbox-nodes="true"
     inkscape:bbox-paths="true"
     inkscape:snap-bbox-midpoints="true" />
  <defs
     id="defs3">
    <marker
       inkscape:stockid="Arrow1Lend"
       orient="auto"
       refY="0"
       refX="0"
       id="Arrow1Lend"
       style="overflow:visible"
       inkscape:isstock="true">
      <path
         id="path4371"
         d="M 0,0 5,-5 -12.5,0 5,5 0,0 Z"
         style="fill:#3c31d4;fill-opacity:1;fill-rule:evenodd;stroke:#3c31d4;stroke-width:1pt;stroke-opacity:1"
         transform="matrix(-0.8,0,0,-0.8,-10,0)"
         inkscape:connector-curvature="0" />
    </marker>
    <marker
       inkscape:stockid="Arrow1Mend"
       orient="auto"
       refY="0"
       refX="0"
       id="Arrow1Mend"
       style="overflow:visible"
       inkscape:isstock="true">
      <path
         id="path4377"
         d="M 0,0 5,-5 -12.5,0 5,5 0,0 Z"
         style="fill:#3c31d4;fill-opacity:1;fill-rule:evenodd;stroke:#3c31d4;stroke-width:1pt;stroke-opacity:1"
         transform="matrix(-0.4,0,0,-0.4,-4,0)"
         inkscape:connector-curvature="0" />
    </marker>
    <marker
       inkscape:stockid="Arrow1Mstart"
       orient="auto"
       refY="0"
       refX="0"
       id="Arrow1Mstart"
       style="overflow:visible"
       inkscape:isstock="true">
      <path
         id="path4374"
         d="M 0,0 5,-5 -12.5,0 5,5 0,0 Z"
         style="fill:#3c31d4;fill-opacity:1;fill-rule:evenodd;stroke:#3c31d4;stroke-width:1pt;stroke-opacity:1"
         transform="matrix(0.4,0,0,0.4,4,0)"
         inkscape:connector-curvature="0" />
    </marker>
    <style
       id="style5">.cls-1,.cls-10,.cls-11,.cls-7,.cls-8{fill:none;}.cls-1,.cls-11{stroke:#3c31d4;}.cls-1,.cls-10,.cls-11,.cls-7{stroke-miterlimit:10;}.cls-2{fill:#3c31d4;}.cls-3{font-size:16px;fill:#262737;}.cls-12,.cls-3{font-family:HKGrotesk-SemiBold, HK Grotesk;font-weight:700;}.cls-4{letter-spacing:-0.03em;}.cls-5{letter-spacing:-0.02em;}.cls-6{letter-spacing:0em;}.cls-7{stroke:#262737;}.cls-11,.cls-7{stroke-width:5px;}.cls-9{letter-spacing:-0.01em;}.cls-10{stroke:#e6e6e6;}.cls-12{font-size:12px;fill:gray;}.cls-13{letter-spacing:-0.03em;}.cls-14{letter-spacing:-0.01em;}.cls-15{letter-spacing:-0.02em;}.cls-16{letter-spacing:0em;}.cls-17{letter-spacing:0em;}.cls-18{letter-spacing:0em;}</style>
    <marker
       inkscape:stockid="Arrow1Mstart"
       orient="auto"
       refY="0"
       refX="0"
       id="Arrow1Mstart-2"
       style="overflow:visible"
       inkscape:isstock="true">
      <path
         inkscape:connector-curvature="0"
         id="path4374-0"
         d="M 0,0 5,-5 -12.5,0 5,5 0,0 Z"
         style="fill:#3c31d4;fill-opacity:1;fill-rule:evenodd;stroke:#3c31d4;stroke-width:1pt;stroke-opacity:1"
         transform="matrix(0.4,0,0,0.4,4,0)" />
    </marker>
    <clipPath
       id="p.1">
      <path
         style="clip-rule:evenodd"
         inkscape:connector-curvature="0"
         id="path3414"
         d="M 0,0 30,0 30,26 0,26 Z" />
    </clipPath>
    <clipPath
       id="p.2">
      <path
         style="clip-rule:evenodd"
         inkscape:connector-curvature="0"
         id="path3423"
         d="M 0,0 24,0 24,25 0,25 Z" />
    </clipPath>
    <clipPath
       id="p.1-3">
      <path
         style="clip-rule:evenodd"
         inkscape:connector-curvature="0"
         id="path3414-8"
         d="M 0,0 30,0 30,26 0,26 Z" />
    </clipPath>
    <clipPath
       id="p.1-3-0">
      <path
         style="clip-rule:evenodd"
         inkscape:connector-curvature="0"
         id="path3414-8-5"
         d="M 0,0 30,0 30,26 0,26 Z" />
    </clipPath>
    <clipPath
       id="p.2-5">
      <path
         style="clip-rule:evenodd"
         inkscape:connector-curvature="0"
         id="path3423-3"
         d="M 0,0 24,0 24,25 0,25 Z" />
    </clipPath>
    <clipPath
       id="p.1-9">
      <path
         style="clip-rule:evenodd"
         inkscape:connector-curvature="0"
         id="path3414-1"
         d="M 0,0 30,0 30,26 0,26 Z" />
    </clipPath>
    <marker
       inkscape:stockid="Arrow1Mstart"
       orient="auto"
       refY="0"
       refX="0"
       id="Arrow1Mstart-2-5"
       style="overflow:visible"
       inkscape:isstock="true">
      <path
         inkscape:connector-curvature="0"
         id="path4374-0-0"
         d="M 0,0 5,-5 -12.5,0 5,5 0,0 Z"
         style="fill:#3c31d4;fill-opacity:1;fill-rule:evenodd;stroke:#3c31d4;stroke-width:1pt;stroke-opacity:1"
         transform="matrix(0.4,0,0,0.4,4,0)" />
    </marker>
    <marker
       inkscape:stockid="Arrow1Mstart"
       orient="auto"
       refY="0"
       refX="0"
       id="Arrow1Mstart-4"
       style="overflow:visible"
       inkscape:isstock="true">
      <path
         id="path4374-9"
         d="M 0,0 5,-5 -12.5,0 5,5 0,0 Z"
         style="fill:#3c31d4;fill-opacity:1;fill-rule:evenodd;stroke:#3c31d4;stroke-width:1pt;stroke-opacity:1"
         transform="matrix(0.4,0,0,0.4,4,0)"
         inkscape:connector-curvature="0" />
    </marker>
    <marker
       inkscape:stockid="Arrow1Mstart"
       orient="auto"
       refY="0"
       refX="0"
       id="Arrow1Mstart-2-9"
       style="overflow:visible"
       inkscape:isstock="true">
      <path
         inkscape:connector-curvature="0"
         id="path4374-0-9"
         d="M 0,0 5,-5 -12.5,0 5,5 0,0 Z"
         style="fill:#3c31d4;fill-opacity:1;fill-rule:evenodd;stroke:#3c31d4;stroke-width:1pt;stroke-opacity:1"
         transform="matrix(0.4,0,0,0.4,4,0)" />
    </marker>
  </defs>
  <title
     id="title7">Artboard 1 copy</title>
  <rect
     style="fill:#f7f7f7;fill-opacity:1;stroke:#f8f9ff;stroke-width:1.25254989;stroke-linecap:round;stroke-linejoin:round;stroke-miterlimit:10;stroke-dasharray:none;stroke-opacity:1"
     id="rect11772"
     width="320.90393"
     height="299.15665"
     x="341.66531"
     y="0.62627494" />
  <path
     class="cls-2"
     d="M 2.8139877,33.871918 Z"
     id="path11"
     inkscape:connector-curvature="0"
     style="fill:#3c31d4" />
  <text
     class="cls-3"
     id="text13"
     style="font-style:normal;font-variant:normal;font-weight:bold;font-stretch:normal;font-size:14px;line-height:0%;font-family:Roboto;-inkscape-font-specification:'Roboto, Bold';text-align:start;writing-mode:lr-tb;text-anchor:start;fill:#262737"
     x="143.71484"
     y="84.497025"
     inkscape:transform-center-x="-7.0152857">
    <tspan
       class="cls-4"
       id="tspan15"
       style="font-style:normal;font-variant:normal;font-weight:bold;font-stretch:normal;font-size:14px;line-height:125%;font-family:Roboto;-inkscape-font-specification:'Roboto, Bold';text-align:start;letter-spacing:-0.03em;writing-mode:lr-tb;text-anchor:start">Person A</tspan>
  </text>
  <path
     d="m 2.8139877,33.871918 0,0 m 0,0 0,0 m 0,0 z m 0,0 z"
     id="path27"
     inkscape:connector-curvature="0" />
  <path
     class="cls-8"
     d="M 2.8139877,33.871918 Z"
     id="path29"
     inkscape:connector-curvature="0"
     style="fill:none" />
  <text
     class="cls-3"
     id="text31"
     style="font-style:normal;font-variant:normal;font-weight:bold;font-stretch:normal;font-size:13.75px;line-height:0%;font-family:Roboto;-inkscape-font-specification:'Roboto, Bold';text-align:start;writing-mode:lr-tb;text-anchor:start;fill:#262737"
     x="133.31522"
     y="231.19022">
    <tspan
       x="144.31519"
       y="231.19022"
       id="tspan35"
       style="font-style:normal;font-variant:normal;font-weight:bold;font-stretch:normal;font-size:13.75px;line-height:125%;font-family:Roboto;-inkscape-font-specification:'Roboto, Bold';text-align:start;writing-mode:lr-tb;text-anchor:start">Company 1</tspan>
  </text>
  <path
     class="cls-8"
     d="M 2.8139877,33.871918 Z"
     id="path41"
     inkscape:connector-curvature="0"
     style="fill:none" />
  <path
     d="m 2.8139877,33.871918 z m 0,0 z m 0,0 z m 0,0 z m 0,0 z m 0,0 z m 0,0 z m 0,0 z m 0,0 z m 0,0 z m 0,0 z m 0,0 z"
     id="path43"
     inkscape:connector-curvature="0" />
  <path
     class="cls-10"
     d="m 2.8139877,33.871918 0,0"
     id="path45"
     inkscape:connector-curvature="0"
     style="fill:none;stroke:#e6e6e6;stroke-miterlimit:10" />
  <path
     class="cls-10"
     d="m 2.8139877,33.871918 0,0"
     id="path47"
     inkscape:connector-curvature="0"
     style="fill:none;stroke:#e6e6e6;stroke-miterlimit:10" />
  <path
     class="cls-10"
     d="m 2.8139877,33.871918 0,0"
     id="path49"
     inkscape:connector-curvature="0"
     style="fill:none;stroke:#e6e6e6;stroke-miterlimit:10" />
  <path
     class="cls-10"
     d="m 2.8139877,33.871918 0,0"
     id="path51"
     inkscape:connector-curvature="0"
     style="fill:none;stroke:#e6e6e6;stroke-miterlimit:10" />
  <path
     class="cls-10"
     d="m 2.8139877,33.871918 0,0"
     id="path53"
     inkscape:connector-curvature="0"
     style="fill:none;stroke:#e6e6e6;stroke-miterlimit:10" />
  <path
     class="cls-10"
     d="m 2.8139877,33.871918 0,0"
     id="path55"
     inkscape:connector-curvature="0"
     style="fill:none;stroke:#e6e6e6;stroke-miterlimit:10" />
  <path
     class="cls-10"
     d="m 2.8139877,33.871918 0,0"
     id="path57"
     inkscape:connector-curvature="0"
     style="fill:none;stroke:#e6e6e6;stroke-miterlimit:10" />
  <path
     class="cls-10"
     d="m 2.8139877,33.871918 0,0"
     id="path59"
     inkscape:connector-curvature="0"
     style="fill:none;stroke:#e6e6e6;stroke-miterlimit:10" />
  <path
     class="cls-10"
     d="m 2.8139877,33.871918 0,0"
     id="path61"
     inkscape:connector-curvature="0"
     style="fill:none;stroke:#e6e6e6;stroke-miterlimit:10" />
  <path
     class="cls-10"
     d="m 2.8139877,33.871918 0,0"
     id="path63"
     inkscape:connector-curvature="0"
     style="fill:none;stroke:#e6e6e6;stroke-miterlimit:10" />
  <path
     class="cls-10"
     d="m 2.8139877,33.871918 0,0"
     id="path65"
     inkscape:connector-curvature="0"
     style="fill:none;stroke:#e6e6e6;stroke-miterlimit:10" />
  <path
     class="cls-10"
     d="m 2.8139877,33.871918 0,0"
     id="path67"
     inkscape:connector-curvature="0"
     style="fill:none;stroke:#e6e6e6;stroke-miterlimit:10" />
  <path
     class="cls-10"
     d="m 2.8139877,33.871918 0,0"
     id="path69"
     inkscape:connector-curvature="0"
     style="fill:none;stroke:#e6e6e6;stroke-miterlimit:10" />
  <path
     class="cls-10"
     d="m 2.8139877,33.871918 0,0"
     id="path71"
     inkscape:connector-curvature="0"
     style="fill:none;stroke:#e6e6e6;stroke-miterlimit:10" />
  <path
     class="cls-10"
     d="m 2.8139877,33.871918 0,0"
     id="path73"
     inkscape:connector-curvature="0"
     style="fill:none;stroke:#e6e6e6;stroke-miterlimit:10" />
  <path
     class="cls-10"
     d="m 2.8139877,33.871918 0,0"
     id="path75"
     inkscape:connector-curvature="0"
     style="fill:none;stroke:#e6e6e6;stroke-miterlimit:10" />
  <path
     class="cls-10"
     d="m 2.8139877,33.871918 0,0"
     id="path77"
     inkscape:connector-curvature="0"
     style="fill:none;stroke:#e6e6e6;stroke-miterlimit:10" />
  <path
     class="cls-11"
     d="m 2.8139877,33.871918 0,0"
     id="path79"
     inkscape:connector-curvature="0"
     style="fill:none;stroke:#3c31d4;stroke-width:5px;stroke-miterlimit:10" />
  <path
     class="cls-11"
     d="m 2.8139877,33.871918 0,0"
     id="path85"
     inkscape:connector-curvature="0"
     style="fill:none;stroke:#3c31d4;stroke-width:5px;stroke-miterlimit:10" />
  <path
     class="cls-11"
     d="m 2.8139877,33.871918 0,0"
     id="path87"
     inkscape:connector-curvature="0"
     style="fill:none;stroke:#3c31d4;stroke-width:5px;stroke-miterlimit:10" />
  <path
     class="cls-11"
     d="m 2.8139877,33.871918 0,0"
     id="path89"
     inkscape:connector-curvature="0"
     style="fill:none;stroke:#3c31d4;stroke-width:5px;stroke-miterlimit:10" />
  <path
     class="cls-11"
     d="m 2.8139877,33.871918 0,0"
     id="path91"
     inkscape:connector-curvature="0"
     style="fill:none;stroke:#3c31d4;stroke-width:5px;stroke-miterlimit:10" />
  <path
     class="cls-11"
     d="m 2.8139877,33.871918 0,0"
     id="path93"
     inkscape:connector-curvature="0"
     style="fill:none;stroke:#3c31d4;stroke-width:5px;stroke-miterlimit:10" />
  <path
     class="cls-11"
     d="m 2.8139877,33.871918 0,0"
     id="path95"
     inkscape:connector-curvature="0"
     style="fill:none;stroke:#3c31d4;stroke-width:5px;stroke-miterlimit:10" />
  <path
     class="cls-10"
     d="m 2.8139877,33.871918 0,0"
     id="path97"
     inkscape:connector-curvature="0"
     style="fill:none;stroke:#e6e6e6;stroke-miterlimit:10" />
  <path
     class="cls-10"
     d="m 2.8139877,33.871918 0,0"
     id="path99"
     inkscape:connector-curvature="0"
     style="fill:none;stroke:#e6e6e6;stroke-miterlimit:10" />
  <path
     class="cls-10"
     d="m 2.8139877,33.871918 0,0"
     id="path101"
     inkscape:connector-curvature="0"
     style="fill:none;stroke:#e6e6e6;stroke-miterlimit:10" />
  <path
     class="cls-10"
     d="m 2.8139877,33.871918 0,0"
     id="path103"
     inkscape:connector-curvature="0"
     style="fill:none;stroke:#e6e6e6;stroke-miterlimit:10" />
  <path
     class="cls-10"
     d="m 2.8139877,33.871918 0,0"
     id="path105"
     inkscape:connector-curvature="0"
     style="fill:none;stroke:#e6e6e6;stroke-miterlimit:10" />
  <path
     class="cls-10"
     d="m 2.8139877,33.871918 0,0"
     id="path107"
     inkscape:connector-curvature="0"
     style="fill:none;stroke:#e6e6e6;stroke-miterlimit:10" />
  <path
     class="cls-10"
     d="m 2.8139877,33.871918 0,0"
     id="path109"
     inkscape:connector-curvature="0"
     style="fill:none;stroke:#e6e6e6;stroke-miterlimit:10" />
  <path
     class="cls-10"
     d="m 2.8139877,33.871918 0,0"
     id="path111"
     inkscape:connector-curvature="0"
     style="fill:none;stroke:#e6e6e6;stroke-miterlimit:10" />
  <path
     class="cls-10"
     d="m 2.8139877,33.871918 0,0"
     id="path113"
     inkscape:connector-curvature="0"
     style="fill:none;stroke:#e6e6e6;stroke-miterlimit:10" />
  <path
     class="cls-10"
     d="m 2.8139877,33.871918 0,0"
     id="path115"
     inkscape:connector-curvature="0"
     style="fill:none;stroke:#e6e6e6;stroke-miterlimit:10" />
  <path
     class="cls-10"
     d="m 2.8139877,33.871918 0,0"
     id="path117"
     inkscape:connector-curvature="0"
     style="fill:none;stroke:#e6e6e6;stroke-miterlimit:10" />
  <path
     class="cls-10"
     d="m 2.8139877,33.871918 0,0"
     id="path119"
     inkscape:connector-curvature="0"
     style="fill:none;stroke:#e6e6e6;stroke-miterlimit:10" />
  <path
     class="cls-2"
     d="M 2.8139877,33.871918 Z"
     id="path171"
     inkscape:connector-curvature="0"
     style="fill:#3c31d4" />
  <path
     class="cls-2"
     d="M 2.8139877,33.871918 Z"
     id="path197"
     inkscape:connector-curvature="0"
     style="fill:#3c31d4" />
  <path
     class="cls-8"
     d="M 2.8139877,33.871918 Z"
     id="path211"
     inkscape:connector-curvature="0"
     style="fill:none" />
  <path
     d="m 2.8139877,33.871918 z m 0,0 z m 0,0 z m 0,0 z m 0,0 z m 0,0 z m 0,0 z m 0,0 z m 0,0 z m 0,0 z m 0,0 z m 0,0 z"
     id="path213"
     inkscape:connector-curvature="0" />
  <path
     style="fill:none;fill-rule:evenodd;stroke:#3c31d4;stroke-width:1.27847636;stroke-linecap:butt;stroke-linejoin:miter;stroke-miterlimit:4;stroke-dasharray:none;stroke-opacity:1;marker-start:url(#Arrow1Mstart)"
     d="m 71.689288,122.1435 0,75.98071 0,0"
     id="path12354"
     inkscape:connector-curvature="0" />
  <circle
     class="cls-11"
     cx="71.689293"
     cy="228.78021"
     r="28.418257"
     id="circle209-7"
     style="fill:none;stroke:#b2b3b9;stroke-width:1.16348481;stroke-miterlimit:10;stroke-dasharray:none;stroke-opacity:1"
     inkscape:transform-center-x="-6.8530753"
     inkscape:transform-center-y="94.074053" />
  <path
     class="cls-11"
     id="circle209-7-4"
     style="fill:none;stroke:#3c31d4;stroke-width:5.7249999;stroke-linecap:round;stroke-miterlimit:10;stroke-dasharray:none;stroke-opacity:1"
     inkscape:transform-center-x="-6.8530753"
     inkscape:transform-center-y="94.074053"
     sodipodi:type="arc"
     sodipodi:cx="71.689293"
     sodipodi:cy="228.78021"
     sodipodi:rx="28.418257"
     sodipodi:ry="28.418257"
     sodipodi:start="1.0471976"
     sodipodi:end="4.8171087"
     d="M 85.89842,253.39115 A 28.418257,28.418257 0 0 1 52.673767,249.89909 28.418257,28.418257 0 0 1 45.727923,217.22147 28.418257,28.418257 0 0 1 74.659809,200.51763"
     sodipodi:open="true" />
  <circle
     class="cls-7"
     cx="71.689278"
     cy="78.780212"
     id="ellipse25-6"
     style="fill:none;stroke:#b2b3b9;stroke-width:1.5579437;stroke-miterlimit:10;stroke-dasharray:none;stroke-opacity:1"
     r="38.721027" />
  <circle
     class="cls-7"
     cx="71.689293"
     cy="228.78021"
     id="ellipse25-6-0"
     style="fill:none;stroke:#b2b3b9;stroke-width:1.5579437;stroke-miterlimit:10;stroke-dasharray:none;stroke-opacity:1"
     r="38.721027" />
  <path
     class="cls-2"
     d="M 356.81399,33.871921 Z"
     id="path11-6"
     inkscape:connector-curvature="0"
     style="fill:#3c31d4" />
  <text
     class="cls-3"
     id="text13-7"
     style="font-style:normal;font-variant:normal;font-weight:bold;font-stretch:normal;font-size:14px;line-height:0%;font-family:Roboto;-inkscape-font-specification:'Roboto, Bold';text-align:start;writing-mode:lr-tb;text-anchor:start;fill:#262737"
     x="498.71484"
     y="84.497032"
     inkscape:transform-center-x="-7.0152857">
    <tspan
       class="cls-4"
       id="tspan15-4"
       style="font-style:normal;font-variant:normal;font-weight:bold;font-stretch:normal;font-size:14px;line-height:125%;font-family:Roboto;-inkscape-font-specification:'Roboto, Bold';text-align:start;letter-spacing:-0.03em;writing-mode:lr-tb;text-anchor:start">Person A</tspan>
  </text>
  <path
     d="m 356.81399,33.871921 0,0 m 0,0 0,0 m 0,0 z m 0,0 z"
     id="path27-3"
     inkscape:connector-curvature="0" />
  <path
     class="cls-8"
     d="M 356.81399,33.871921 Z"
     id="path29-0"
     inkscape:connector-curvature="0"
     style="fill:none" />
  <path
     class="cls-8"
     d="M 356.81399,33.871921 Z"
     id="path41-6"
     inkscape:connector-curvature="0"
     style="fill:none" />
  <path
     d="m 356.81399,33.871921 z m 0,0 z m 0,0 z m 0,0 z m 0,0 z m 0,0 z m 0,0 z m 0,0 z m 0,0 z m 0,0 z m 0,0 z m 0,0 z"
     id="path43-0"
     inkscape:connector-curvature="0" />
  <path
     class="cls-10"
     d="m 356.81399,33.871921 0,0"
     id="path45-4"
     inkscape:connector-curvature="0"
     style="fill:none;stroke:#e6e6e6;stroke-miterlimit:10" />
  <path
     class="cls-10"
     d="m 356.81399,33.871921 0,0"
     id="path47-5"
     inkscape:connector-curvature="0"
     style="fill:none;stroke:#e6e6e6;stroke-miterlimit:10" />
  <path
     class="cls-10"
     d="m 356.81399,33.871921 0,0"
     id="path49-8"
     inkscape:connector-curvature="0"
     style="fill:none;stroke:#e6e6e6;stroke-miterlimit:10" />
  <path
     class="cls-10"
     d="m 356.81399,33.871921 0,0"
     id="path51-2"
     inkscape:connector-curvature="0"
     style="fill:none;stroke:#e6e6e6;stroke-miterlimit:10" />
  <path
     class="cls-10"
     d="m 356.81399,33.871921 0,0"
     id="path53-8"
     inkscape:connector-curvature="0"
     style="fill:none;stroke:#e6e6e6;stroke-miterlimit:10" />
  <path
     class="cls-10"
     d="m 356.81399,33.871921 0,0"
     id="path55-6"
     inkscape:connector-curvature="0"
     style="fill:none;stroke:#e6e6e6;stroke-miterlimit:10" />
  <path
     class="cls-10"
     d="m 356.81399,33.871921 0,0"
     id="path57-8"
     inkscape:connector-curvature="0"
     style="fill:none;stroke:#e6e6e6;stroke-miterlimit:10" />
  <path
     class="cls-10"
     d="m 356.81399,33.871921 0,0"
     id="path59-5"
     inkscape:connector-curvature="0"
     style="fill:none;stroke:#e6e6e6;stroke-miterlimit:10" />
  <path
     class="cls-10"
     d="m 356.81399,33.871921 0,0"
     id="path61-3"
     inkscape:connector-curvature="0"
     style="fill:none;stroke:#e6e6e6;stroke-miterlimit:10" />
  <path
     class="cls-10"
     d="m 356.81399,33.871921 0,0"
     id="path63-4"
     inkscape:connector-curvature="0"
     style="fill:none;stroke:#e6e6e6;stroke-miterlimit:10" />
  <path
     class="cls-10"
     d="m 356.81399,33.871921 0,0"
     id="path65-0"
     inkscape:connector-curvature="0"
     style="fill:none;stroke:#e6e6e6;stroke-miterlimit:10" />
  <path
     class="cls-10"
     d="m 356.81399,33.871921 0,0"
     id="path67-1"
     inkscape:connector-curvature="0"
     style="fill:none;stroke:#e6e6e6;stroke-miterlimit:10" />
  <path
     class="cls-10"
     d="m 356.81399,33.871921 0,0"
     id="path69-7"
     inkscape:connector-curvature="0"
     style="fill:none;stroke:#e6e6e6;stroke-miterlimit:10" />
  <path
     class="cls-10"
     d="m 356.81399,33.871921 0,0"
     id="path71-7"
     inkscape:connector-curvature="0"
     style="fill:none;stroke:#e6e6e6;stroke-miterlimit:10" />
  <path
     class="cls-10"
     d="m 356.81399,33.871921 0,0"
     id="path73-8"
     inkscape:connector-curvature="0"
     style="fill:none;stroke:#e6e6e6;stroke-miterlimit:10" />
  <path
     class="cls-10"
     d="m 356.81399,33.871921 0,0"
     id="path75-0"
     inkscape:connector-curvature="0"
     style="fill:none;stroke:#e6e6e6;stroke-miterlimit:10" />
  <path
     class="cls-10"
     d="m 356.81399,33.871921 0,0"
     id="path77-8"
     inkscape:connector-curvature="0"
     style="fill:none;stroke:#e6e6e6;stroke-miterlimit:10" />
  <path
     class="cls-11"
     d="m 356.81399,33.871921 0,0"
     id="path79-9"
     inkscape:connector-curvature="0"
     style="fill:none;stroke:#3c31d4;stroke-width:5px;stroke-miterlimit:10" />
  <path
     class="cls-11"
     d="m 356.81399,33.871921 0,0"
     id="path85-7"
     inkscape:connector-curvature="0"
     style="fill:none;stroke:#3c31d4;stroke-width:5px;stroke-miterlimit:10" />
  <path
     class="cls-11"
     d="m 356.81399,33.871921 0,0"
     id="path87-8"
     inkscape:connector-curvature="0"
     style="fill:none;stroke:#3c31d4;stroke-width:5px;stroke-miterlimit:10" />
  <path
     class="cls-11"
     d="m 356.81399,33.871921 0,0"
     id="path89-3"
     inkscape:connector-curvature="0"
     style="fill:none;stroke:#3c31d4;stroke-width:5px;stroke-miterlimit:10" />
  <path
     class="cls-11"
     d="m 356.81399,33.871921 0,0"
     id="path91-9"
     inkscape:connector-curvature="0"
     style="fill:none;stroke:#3c31d4;stroke-width:5px;stroke-miterlimit:10" />
  <path
     class="cls-11"
     d="m 356.81399,33.871921 0,0"
     id="path93-7"
     inkscape:connector-curvature="0"
     style="fill:none;stroke:#3c31d4;stroke-width:5px;stroke-miterlimit:10" />
  <path
     class="cls-11"
     d="m 356.81399,33.871921 0,0"
     id="path95-2"
     inkscape:connector-curvature="0"
     style="fill:none;stroke:#3c31d4;stroke-width:5px;stroke-miterlimit:10" />
  <path
     class="cls-10"
     d="m 356.81399,33.871921 0,0"
     id="path97-5"
     inkscape:connector-curvature="0"
     style="fill:none;stroke:#e6e6e6;stroke-miterlimit:10" />
  <path
     class="cls-10"
     d="m 356.81399,33.871921 0,0"
     id="path99-0"
     inkscape:connector-curvature="0"
     style="fill:none;stroke:#e6e6e6;stroke-miterlimit:10" />
  <path
     class="cls-10"
     d="m 356.81399,33.871921 0,0"
     id="path101-2"
     inkscape:connector-curvature="0"
     style="fill:none;stroke:#e6e6e6;stroke-miterlimit:10" />
  <path
     class="cls-10"
     d="m 356.81399,33.871921 0,0"
     id="path103-4"
     inkscape:connector-curvature="0"
     style="fill:none;stroke:#e6e6e6;stroke-miterlimit:10" />
  <path
     class="cls-10"
     d="m 356.81399,33.871921 0,0"
     id="path105-8"
     inkscape:connector-curvature="0"
     style="fill:none;stroke:#e6e6e6;stroke-miterlimit:10" />
  <path
     class="cls-10"
     d="m 356.81399,33.871921 0,0"
     id="path107-0"
     inkscape:connector-curvature="0"
     style="fill:none;stroke:#e6e6e6;stroke-miterlimit:10" />
  <path
     class="cls-10"
     d="m 356.81399,33.871921 0,0"
     id="path109-6"
     inkscape:connector-curvature="0"
     style="fill:none;stroke:#e6e6e6;stroke-miterlimit:10" />
  <path
     class="cls-10"
     d="m 356.81399,33.871921 0,0"
     id="path111-2"
     inkscape:connector-curvature="0"
     style="fill:none;stroke:#e6e6e6;stroke-miterlimit:10" />
  <path
     class="cls-10"
     d="m 356.81399,33.871921 0,0"
     id="path113-6"
     inkscape:connector-curvature="0"
     style="fill:none;stroke:#e6e6e6;stroke-miterlimit:10" />
  <path
     class="cls-10"
     d="m 356.81399,33.871921 0,0"
     id="path115-5"
     inkscape:connector-curvature="0"
     style="fill:none;stroke:#e6e6e6;stroke-miterlimit:10" />
  <path
     class="cls-10"
     d="m 356.81399,33.871921 0,0"
     id="path117-6"
     inkscape:connector-curvature="0"
     style="fill:none;stroke:#e6e6e6;stroke-miterlimit:10" />
  <path
     class="cls-10"
     d="m 356.81399,33.871921 0,0"
     id="path119-6"
     inkscape:connector-curvature="0"
     style="fill:none;stroke:#e6e6e6;stroke-miterlimit:10" />
  <path
     class="cls-2"
     d="M 356.81399,33.871921 Z"
     id="path171-1"
     inkscape:connector-curvature="0"
     style="fill:#3c31d4" />
  <path
     class="cls-2"
     d="M 356.81399,33.871921 Z"
     id="path197-3"
     inkscape:connector-curvature="0"
     style="fill:#3c31d4" />
  <text
     class="cls-3"
     id="text199-0"
     style="font-style:normal;font-variant:normal;font-weight:bold;font-stretch:normal;font-size:13.75px;line-height:0%;font-family:Roboto;-inkscape-font-specification:'Roboto, Bold';text-align:start;writing-mode:lr-tb;text-anchor:start;fill:#262737"
     x="488.31519"
     y="233.05688">
    <tspan
       x="499.31519"
       y="233.05688"
       id="tspan203-8"
       style="font-style:normal;font-variant:normal;font-weight:bold;font-stretch:normal;font-size:13.75px;line-height:125%;font-family:Roboto;-inkscape-font-specification:'Roboto, Bold';text-align:start;writing-mode:lr-tb;text-anchor:start">Company 2</tspan>
  </text>
  <path
     class="cls-8"
     d="M 356.81399,33.871921 Z"
     id="path211-2"
     inkscape:connector-curvature="0"
     style="fill:none" />
  <path
     d="m 356.81399,33.871921 z m 0,0 z m 0,0 z m 0,0 z m 0,0 z m 0,0 z m 0,0 z m 0,0 z m 0,0 z m 0,0 z m 0,0 z m 0,0 z"
     id="path213-9"
     inkscape:connector-curvature="0" />
  <circle
     class="cls-11"
     cx="425.6893"
     cy="228.78021"
     r="36.63768"
     id="circle209-2-0-7"
     style="fill:none;stroke:#b2b3b9;stroke-width:1.55799997;stroke-linecap:round;stroke-miterlimit:10;stroke-dasharray:none;stroke-opacity:1"
     inkscape:transform-center-x="-8.8351931"
     inkscape:transform-center-y="121.2831" />
  <path
     class="cls-11"
     id="circle209-2-0"
     style="fill:none;stroke:#3c31d4;stroke-width:5.72463751px;stroke-linecap:round;stroke-miterlimit:10;stroke-opacity:1"
     inkscape:transform-center-x="-8.8351931"
     inkscape:transform-center-y="121.2831"
     sodipodi:type="arc"
     sodipodi:cx="425.68542"
     sodipodi:cy="229.05688"
     sodipodi:rx="36.63768"
     sodipodi:ry="36.63768"
     sodipodi:start="4.5378561"
     sodipodi:end="1.3962634"
     d="m 419.32336,192.97581 a 36.63768,36.63768 0 0 1 42.44314,29.71901 36.63768,36.63768 0 0 1 -29.71901,42.44314"
     sodipodi:open="true" />
  <circle
     class="cls-7"
     cx="425.6893"
     cy="78.78022"
     id="ellipse25-6-3"
     style="fill:none;stroke:#b2b3b9;stroke-width:1.55799997;stroke-miterlimit:10;stroke-dasharray:none;stroke-opacity:1"
     r="38.721027" />
  <path
     style="fill:none;fill-rule:evenodd;stroke:#3c31d4;stroke-width:1.20000005;stroke-linecap:butt;stroke-linejoin:miter;stroke-miterlimit:4;stroke-dasharray:none;stroke-opacity:1;marker-start:url(#Arrow1Mstart-2-9)"
     d="m 425.6893,121.18892 0,67.57461 0,0"
     id="path12354-2-8"
     inkscape:connector-curvature="0" />
  <text
     xml:space="preserve"
     style="font-style:normal;font-variant:normal;font-weight:normal;font-stretch:normal;font-size:12px;line-height:0%;font-family:Roboto;-inkscape-font-specification:'Roboto, Normal';font-variant-ligatures:normal;font-variant-caps:normal;font-variant-numeric:normal;font-feature-settings:normal;text-align:center;letter-spacing:0px;word-spacing:0px;writing-mode:lr-tb;text-anchor:middle;fill:#000000;fill-opacity:1;stroke:none;stroke-width:1px;stroke-linecap:butt;stroke-linejoin:miter;stroke-opacity:1"
     x="227.33008"
     y="160.07867"
     id="text14691"><tspan
       sodipodi:role="line"
       id="tspan14693"
       x="227.33008"
       y="160.07867"
       style="color:#000000;font-style:normal;font-variant:normal;font-weight:normal;font-stretch:normal;font-size:12px;line-height:125%;font-family:Roboto;-inkscape-font-specification:'Roboto, Normal';font-variant-ligatures:normal;font-variant-caps:normal;font-variant-numeric:normal;font-feature-settings:normal;text-align:center;writing-mode:lr-tb;text-anchor:middle;clip-rule:nonzero;display:inline;overflow:visible;visibility:visible;opacity:1;isolation:auto;mix-blend-mode:normal;color-interpolation:sRGB;color-interpolation-filters:linearRGB;solid-color:#000000;solid-opacity:1;fill:#808080;fill-opacity:1;fill-rule:nonzero;stroke:none;stroke-width:1px;stroke-linecap:butt;stroke-linejoin:miter;stroke-miterlimit:4;stroke-dasharray:none;stroke-dashoffset:0;stroke-opacity:1;color-rendering:auto;image-rendering:auto;shape-rendering:auto;text-rendering:auto;enable-background:accumulate">60% directors appointed by</tspan></text>
  <rect
     style="fill:none;fill-opacity:1;stroke:#f7f7f7;stroke-width:4;stroke-linecap:round;stroke-linejoin:round;stroke-miterlimit:10;stroke-dasharray:none;stroke-opacity:1"
     id="rect11772-8"
     width="337.03903"
     height="296.409"
     x="2"
     y="2.6430631" />
  <path
     id="path4516"
     d="m 71.715615,222.23923 0.01687,-5.23294 -13.081974,-0.0425 -0.07327,23.54785 26.164697,0.085 0.0594,-18.3149 z m -7.900334,15.67315 -2.616105,-0.009 0.0081,-2.61611 2.616841,0.009 z m 0.01687,-5.23294 -2.616106,-0.009 0.0081,-2.61609 2.61684,0.009 z m 0.01687,-5.23292 -2.616106,-0.009 0.0081,-2.61611 2.61684,0.009 z m 0.01687,-5.23294 -2.616106,-0.009 0.0081,-2.61611 2.61684,0.009 z m 5.182375,15.71566 -2.616106,-0.008 0.0081,-2.61903 2.61684,0.009 z m 0.01688,-5.23293 -2.616106,-0.008 0.0081,-2.61684 2.61684,0.009 z m 0.01687,-5.23293 -2.616105,-0.008 0.0081,-2.61684 2.616841,0.009 z m 0.01687,-5.23296 -2.616106,-0.008 0.0088,-2.61683 2.61684,0.009 z m 13.032142,15.74132 -10.465873,-0.0315 0.0081,-2.61684 2.616833,0.009 0.008,-2.61683 -2.616099,-0.008 0.0081,-2.61683 2.616849,0.009 0.008,-2.61684 -2.616112,-0.008 0.0081,-2.61683 10.465872,0.0345 z m -2.58312,-10.47466 -2.61611,-0.008 -0.009,2.61608 2.61684,0.009 z m -0.0168,5.23293 -2.6161,-0.008 -0.009,2.61611 2.61684,0.009 z"
     inkscape:connector-curvature="0" />
  <path
     id="path5743"
     d="m 71.754611,69.235863 a 3.2791037,3.2791037 0 1 1 -3.29026,3.267949 3.2783067,3.2783067 0 0 1 3.29026,-3.267949 m -0.04542,14.052958 c 4.637307,0.0152 9.516897,2.311477 9.513707,3.3102 l -0.006,1.71766 -19.049728,-0.0622 0.0058,-1.71767 c 0,-0.99871 4.897929,-3.26316 9.536018,-3.24801 m 0.055,-17.01962 a 6.2457601,6.2457601 0 1 0 6.22583,6.26568 6.2441661,6.2441661 0 0 0 -6.22583,-6.26568 z m -0.04541,14.052958 c -4.16919,-0.0136 -12.498465,2.051628 -12.513615,6.205112 l -0.01517,4.68431 24.983055,0.0797 0.0159,-4.68432 c 0.0143,-4.15188 -8.30138,-6.271266 -12.470009,-6.284815 z"
     inkscape:connector-curvature="0" />
  <path
     id="path4516-1"
     d="m 425.71543,222.23924 0.0169,-5.23294 -13.08198,-0.0425 -0.0733,23.54785 26.1647,0.085 0.0594,-18.3149 z m -7.90034,15.67315 -2.6161,-0.009 0.008,-2.61611 2.61684,0.009 z m 0.0169,-5.23294 -2.6161,-0.009 0.008,-2.61609 2.61684,0.009 z m 0.0169,-5.23292 -2.6161,-0.009 0.008,-2.61611 2.61684,0.009 z m 0.0169,-5.23294 -2.6161,-0.009 0.008,-2.61611 2.61684,0.009 z m 5.18238,15.71566 -2.61611,-0.008 0.008,-2.61903 2.61684,0.009 z m 0.0169,-5.23293 -2.61611,-0.008 0.008,-2.61684 2.61684,0.009 z m 0.0169,-5.23293 -2.61611,-0.008 0.008,-2.61684 2.61684,0.009 z m 0.0169,-5.23296 -2.61611,-0.008 0.009,-2.61683 2.61684,0.009 z m 13.03214,15.74132 -10.46587,-0.0315 0.008,-2.61684 2.61683,0.009 0.008,-2.61683 -2.6161,-0.008 0.008,-2.61683 2.61685,0.009 0.008,-2.61684 -2.61611,-0.008 0.008,-2.61683 10.46587,0.0345 z m -2.58312,-10.47466 -2.61611,-0.008 -0.009,2.61608 2.61684,0.009 z m -0.0168,5.23293 -2.6161,-0.008 -0.009,2.61611 2.61684,0.009 z"
     inkscape:connector-curvature="0" />
  <path
     id="path5743-0"
     d="m 425.75442,69.235869 a 3.2791037,3.2791037 0 1 1 -3.29026,3.26795 3.2783067,3.2783067 0 0 1 3.29026,-3.26795 m -0.0454,14.05296 c 4.63731,0.0152 9.5169,2.31148 9.51371,3.3102 l -0.006,1.71766 -19.04973,-0.0622 0.006,-1.71767 c 0,-0.99871 4.89793,-3.26316 9.53602,-3.24801 m 0.055,-17.01962 a 6.2457601,6.2457601 0 1 0 6.22583,6.26568 6.2441661,6.2441661 0 0 0 -6.22583,-6.26568 z m -0.0454,14.05296 c -4.16919,-0.0136 -12.49846,2.05163 -12.51361,6.20511 l -0.0152,4.68431 24.98305,0.0797 0.0159,-4.68432 c 0.0143,-4.15188 -8.30138,-6.27127 -12.47001,-6.28482 z"
     inkscape:connector-curvature="0" />
  <text
     xml:space="preserve"
     style="font-style:normal;font-variant:normal;font-weight:normal;font-stretch:normal;font-size:12px;line-height:0%;font-family:Roboto;-inkscape-font-specification:'Roboto, Normal';font-variant-ligatures:normal;font-variant-caps:normal;font-variant-numeric:normal;font-feature-settings:normal;text-align:center;letter-spacing:0px;word-spacing:0px;writing-mode:lr-tb;text-anchor:middle;fill:#000000;fill-opacity:1;stroke:none;stroke-width:1px;stroke-linecap:butt;stroke-linejoin:miter;stroke-opacity:1"
     x="565.17969"
     y="155.63857"
     id="text14691-3"><tspan
       sodipodi:role="line"
       id="tspan14693-6"
       x="565.17969"
       y="155.63857"
       style="color:#000000;font-style:normal;font-variant:normal;font-weight:normal;font-stretch:normal;font-size:12px;line-height:125%;font-family:Roboto;-inkscape-font-specification:'Roboto, Normal';font-variant-ligatures:normal;font-variant-caps:normal;font-variant-numeric:normal;font-feature-settings:normal;text-align:center;writing-mode:lr-tb;text-anchor:middle;clip-rule:nonzero;display:inline;overflow:visible;visibility:visible;opacity:1;isolation:auto;mix-blend-mode:normal;color-interpolation:sRGB;color-interpolation-filters:linearRGB;solid-color:#000000;solid-opacity:1;fill:#808080;fill-opacity:1;fill-rule:nonzero;stroke:none;stroke-width:1px;stroke-linecap:butt;stroke-linejoin:miter;stroke-miterlimit:4;stroke-dasharray:none;stroke-dashoffset:0;stroke-opacity:1;color-rendering:auto;image-rendering:auto;shape-rendering:auto;text-rendering:auto;enable-background:accumulate">50% shares owned by</tspan></text>
</svg>
