<?xml version="1.0" encoding="utf-8" standalone="no"?>
<svg xmlns:dc="http://purl.org/dc/elements/1.1/" xmlns:cc="http://creativecommons.org/ns#" xmlns:rdf="http://www.w3.org/1999/02/22-rdf-syntax-ns#" xmlns:svg="http://www.w3.org/2000/svg" xmlns="http://www.w3.org/2000/svg" xmlns:sodipodi="http://sodipodi.sourceforge.net/DTD/sodipodi-0.dtd" xmlns:inkscape="http://www.inkscape.org/namespaces/inkscape" id="Layer_1" data-name="Layer 1" viewBox="0 0 397.11661 521.89019" version="1.1" inkscape:version="0.92.3 (2405546, 2018-03-11)" sodipodi:docname="Diag2-simpleInd.svg" width="397.11661" height="521.8902">
  <metadata id="metadata217">
    <rdf:RDF>
      <cc:Work rdf:about="">
        <dc:format>image/svg+xml</dc:format>
        <dc:type rdf:resource="http://purl.org/dc/dcmitype/StillImage"/>
        <dc:title>Artboard 1 copy</dc:title>
      </cc:Work>
    </rdf:RDF>
  </metadata>
  <sodipodi:namedview pagecolor="#ffffff" bordercolor="#666666" borderopacity="1" objecttolerance="10" gridtolerance="10" guidetolerance="10" inkscape:pageopacity="0" inkscape:pageshadow="2" inkscape:window-width="1853" inkscape:window-height="1025" id="namedview215" showgrid="false" inkscape:zoom="1.4254587" inkscape:cx="52.835468" inkscape:cy="290.68212" inkscape:window-x="1987" inkscape:window-y="27" inkscape:window-maximized="1" inkscape:current-layer="Layer_1" inkscape:snap-text-baseline="true" inkscape:snap-center="true" inkscape:snap-object-midpoints="true" inkscape:snap-others="true" inkscape:snap-bbox="true" inkscape:snap-bbox-edge-midpoints="true" fit-margin-top="30" fit-margin-right="30" fit-margin-bottom="30" fit-margin-left="30"/>
  <defs id="defs3">
    <marker inkscape:stockid="Arrow1Lend" orient="auto" refY="0" refX="0" id="Arrow1Lend" style="overflow:visible" inkscape:isstock="true">
      <path id="path4371" d="M 0,0 5,-5 -12.5,0 5,5 0,0 Z" style="fill:#3c31d4;fill-opacity:1;fill-rule:evenodd;stroke:#3c31d4;stroke-width:1pt;stroke-opacity:1" transform="matrix(-0.8,0,0,-0.8,-10,0)" inkscape:connector-curvature="0"/>
    </marker>
    <marker inkscape:stockid="Arrow1Mend" orient="auto" refY="0" refX="0" id="Arrow1Mend" style="overflow:visible" inkscape:isstock="true">
      <path id="path4377" d="M 0,0 5,-5 -12.5,0 5,5 0,0 Z" style="fill:#3c31d4;fill-opacity:1;fill-rule:evenodd;stroke:#3c31d4;stroke-width:1pt;stroke-opacity:1" transform="matrix(-0.4,0,0,-0.4,-4,0)" inkscape:connector-curvature="0"/>
    </marker>
    <marker inkscape:stockid="Arrow1Mstart" orient="auto" refY="0" refX="0" id="Arrow1Mstart" style="overflow:visible" inkscape:isstock="true">
      <path id="path4374" d="M 0,0 5,-5 -12.5,0 5,5 0,0 Z" style="fill:#3c31d4;fill-opacity:1;fill-rule:evenodd;stroke:#3c31d4;stroke-width:1pt;stroke-opacity:1" transform="matrix(0.4,0,0,0.4,4,0)" inkscape:connector-curvature="0"/>
    </marker>
    <style id="style5">.cls-1,.cls-10,.cls-11,.cls-7,.cls-8{fill:none;}.cls-1,.cls-11{stroke:#3c31d4;}.cls-1,.cls-10,.cls-11,.cls-7{stroke-miterlimit:10;}.cls-2{fill:#3c31d4;}.cls-3{font-size:16px;fill:#262737;}.cls-12,.cls-3{font-family:HKGrotesk-SemiBold, HK Grotesk;font-weight:700;}.cls-4{letter-spacing:-0.03em;}.cls-5{letter-spacing:-0.02em;}.cls-6{letter-spacing:0em;}.cls-7{stroke:#262737;}.cls-11,.cls-7{stroke-width:5px;}.cls-9{letter-spacing:-0.01em;}.cls-10{stroke:#e6e6e6;}.cls-12{font-size:12px;fill:gray;}.cls-13{letter-spacing:-0.03em;}.cls-14{letter-spacing:-0.01em;}.cls-15{letter-spacing:-0.02em;}.cls-16{letter-spacing:0em;}.cls-17{letter-spacing:0em;}.cls-18{letter-spacing:0em;}</style>
    <marker inkscape:stockid="Arrow1Mstart" orient="auto" refY="0" refX="0" id="Arrow1Mstart-2" style="overflow:visible" inkscape:isstock="true">
      <path inkscape:connector-curvature="0" id="path4374-0" d="M 0,0 5,-5 -12.5,0 5,5 0,0 Z" style="fill:#3c31d4;fill-opacity:1;fill-rule:evenodd;stroke:#3c31d4;stroke-width:1pt;stroke-opacity:1" transform="matrix(0.4,0,0,0.4,4,0)"/>
    </marker>
    <clipPath id="p.1">
      <path style="clip-rule:evenodd" inkscape:connector-curvature="0" id="path3414" d="M 0,0 30,0 30,26 0,26 Z"/>
    </clipPath>
    <clipPath id="p.2">
      <path style="clip-rule:evenodd" inkscape:connector-curvature="0" id="path3423" d="M 0,0 24,0 24,25 0,25 Z"/>
    </clipPath>
    <clipPath id="p.1-3">
      <path style="clip-rule:evenodd" inkscape:connector-curvature="0" id="path3414-8" d="M 0,0 30,0 30,26 0,26 Z"/>
    </clipPath>
  </defs>
  <title id="title7">Artboard 1 copy</title>
  <path class="cls-2" d="M 30,33 Z" id="path11" inkscape:connector-curvature="0" style="fill:#3c31d4"/>
  <text class="cls-3" id="text13" style="font-style:normal;font-variant:normal;font-weight:bold;font-stretch:normal;font-size:16.79999924px;line-height:0%;font-family:Roboto;-inkscape-font-specification:'Roboto, Bold';text-align:start;writing-mode:lr-tb;text-anchor:start;fill:#262737" x="198.53564" y="93.750114" inkscape:transform-center-x="-8.4183475">
    <tspan class="cls-4" id="tspan15" style="font-style:normal;font-variant:normal;font-weight:bold;font-stretch:normal;font-size:16.79999924px;line-height:125%;font-family:Roboto;-inkscape-font-specification:'Roboto, Bold';text-align:start;letter-spacing:-0.03em;writing-mode:lr-tb;text-anchor:start">Persona B</tspan>
  </text>
  <path d="m 30,33 0,0 m 0,0 0,0 m 0,0 z m 0,0 z" id="path27" inkscape:connector-curvature="0"/>
  <path class="cls-8" d="M 30,33 Z" id="path29" inkscape:connector-curvature="0" style="fill:none"/>
  <text class="cls-3" id="text31" style="font-style:normal;font-variant:normal;font-weight:bold;font-stretch:normal;font-size:16.5px;line-height:0%;font-family:Roboto;-inkscape-font-specification:'Roboto, Bold';text-align:start;writing-mode:lr-tb;text-anchor:start;fill:#262737" x="185.70201" y="269.78195">
    <tspan x="198.90199" y="269.78195" id="tspan35" style="font-style:normal;font-variant:normal;font-weight:bold;font-stretch:normal;font-size:16.5px;line-height:125%;font-family:Roboto;-inkscape-font-specification:'Roboto, Bold';text-align:start;writing-mode:lr-tb;text-anchor:start">Empresa 2</tspan>
  </text>
  <path class="cls-8" d="M 30,33 Z" id="path41" inkscape:connector-curvature="0" style="fill:none"/>
  <path d="m 30,33 z m 0,0 z m 0,0 z m 0,0 z m 0,0 z m 0,0 z m 0,0 z m 0,0 z m 0,0 z m 0,0 z m 0,0 z m 0,0 z" id="path43" inkscape:connector-curvature="0"/>
  <path class="cls-10" d="m 30,33 0,0" id="path45" inkscape:connector-curvature="0" style="fill:none;stroke:#e6e6e6;stroke-width:1.20000005;stroke-miterlimit:10"/>
  <path class="cls-10" d="m 30,33 0,0" id="path47" inkscape:connector-curvature="0" style="fill:none;stroke:#e6e6e6;stroke-width:1.20000005;stroke-miterlimit:10"/>
  <path class="cls-10" d="m 30,33 0,0" id="path49" inkscape:connector-curvature="0" style="fill:none;stroke:#e6e6e6;stroke-width:1.20000005;stroke-miterlimit:10"/>
  <path class="cls-10" d="m 30,33 0,0" id="path51" inkscape:connector-curvature="0" style="fill:none;stroke:#e6e6e6;stroke-width:1.20000005;stroke-miterlimit:10"/>
  <path class="cls-10" d="m 30,33 0,0" id="path53" inkscape:connector-curvature="0" style="fill:none;stroke:#e6e6e6;stroke-width:1.20000005;stroke-miterlimit:10"/>
  <path class="cls-10" d="m 30,33 0,0" id="path55" inkscape:connector-curvature="0" style="fill:none;stroke:#e6e6e6;stroke-width:1.20000005;stroke-miterlimit:10"/>
  <path class="cls-10" d="m 30,33 0,0" id="path57" inkscape:connector-curvature="0" style="fill:none;stroke:#e6e6e6;stroke-width:1.20000005;stroke-miterlimit:10"/>
  <path class="cls-10" d="m 30,33 0,0" id="path59" inkscape:connector-curvature="0" style="fill:none;stroke:#e6e6e6;stroke-width:1.20000005;stroke-miterlimit:10"/>
  <path class="cls-10" d="m 30,33 0,0" id="path61" inkscape:connector-curvature="0" style="fill:none;stroke:#e6e6e6;stroke-width:1.20000005;stroke-miterlimit:10"/>
  <path class="cls-10" d="m 30,33 0,0" id="path63" inkscape:connector-curvature="0" style="fill:none;stroke:#e6e6e6;stroke-width:1.20000005;stroke-miterlimit:10"/>
  <path class="cls-10" d="m 30,33 0,0" id="path65" inkscape:connector-curvature="0" style="fill:none;stroke:#e6e6e6;stroke-width:1.20000005;stroke-miterlimit:10"/>
  <path class="cls-10" d="m 30,33 0,0" id="path67" inkscape:connector-curvature="0" style="fill:none;stroke:#e6e6e6;stroke-width:1.20000005;stroke-miterlimit:10"/>
  <path class="cls-10" d="m 30,33 0,0" id="path69" inkscape:connector-curvature="0" style="fill:none;stroke:#e6e6e6;stroke-width:1.20000005;stroke-miterlimit:10"/>
  <path class="cls-10" d="m 30,33 0,0" id="path71" inkscape:connector-curvature="0" style="fill:none;stroke:#e6e6e6;stroke-width:1.20000005;stroke-miterlimit:10"/>
  <path class="cls-10" d="m 30,33 0,0" id="path73" inkscape:connector-curvature="0" style="fill:none;stroke:#e6e6e6;stroke-width:1.20000005;stroke-miterlimit:10"/>
  <path class="cls-10" d="m 30,33 0,0" id="path75" inkscape:connector-curvature="0" style="fill:none;stroke:#e6e6e6;stroke-width:1.20000005;stroke-miterlimit:10"/>
  <path class="cls-10" d="m 30,33 0,0" id="path77" inkscape:connector-curvature="0" style="fill:none;stroke:#e6e6e6;stroke-width:1.20000005;stroke-miterlimit:10"/>
  <path class="cls-11" d="m 30,33 0,0" id="path79" inkscape:connector-curvature="0" style="fill:none;stroke:#3c31d4;stroke-width:6px;stroke-miterlimit:10"/>
  <path class="cls-11" d="m 30,33 0,0" id="path85" inkscape:connector-curvature="0" style="fill:none;stroke:#3c31d4;stroke-width:6px;stroke-miterlimit:10"/>
  <path class="cls-11" d="m 30,33 0,0" id="path87" inkscape:connector-curvature="0" style="fill:none;stroke:#3c31d4;stroke-width:6px;stroke-miterlimit:10"/>
  <path class="cls-11" d="m 30,33 0,0" id="path89" inkscape:connector-curvature="0" style="fill:none;stroke:#3c31d4;stroke-width:6px;stroke-miterlimit:10"/>
  <path class="cls-11" d="m 30,33 0,0" id="path91" inkscape:connector-curvature="0" style="fill:none;stroke:#3c31d4;stroke-width:6px;stroke-miterlimit:10"/>
  <path class="cls-11" d="m 30,33 0,0" id="path93" inkscape:connector-curvature="0" style="fill:none;stroke:#3c31d4;stroke-width:6px;stroke-miterlimit:10"/>
  <path class="cls-11" d="m 30,33 0,0" id="path95" inkscape:connector-curvature="0" style="fill:none;stroke:#3c31d4;stroke-width:6px;stroke-miterlimit:10"/>
  <path class="cls-10" d="m 30,33 0,0" id="path97" inkscape:connector-curvature="0" style="fill:none;stroke:#e6e6e6;stroke-width:1.20000005;stroke-miterlimit:10"/>
  <path class="cls-10" d="m 30,33 0,0" id="path99" inkscape:connector-curvature="0" style="fill:none;stroke:#e6e6e6;stroke-width:1.20000005;stroke-miterlimit:10"/>
  <path class="cls-10" d="m 30,33 0,0" id="path101" inkscape:connector-curvature="0" style="fill:none;stroke:#e6e6e6;stroke-width:1.20000005;stroke-miterlimit:10"/>
  <path class="cls-10" d="m 30,33 0,0" id="path103" inkscape:connector-curvature="0" style="fill:none;stroke:#e6e6e6;stroke-width:1.20000005;stroke-miterlimit:10"/>
  <path class="cls-10" d="m 30,33 0,0" id="path105" inkscape:connector-curvature="0" style="fill:none;stroke:#e6e6e6;stroke-width:1.20000005;stroke-miterlimit:10"/>
  <path class="cls-10" d="m 30,33 0,0" id="path107" inkscape:connector-curvature="0" style="fill:none;stroke:#e6e6e6;stroke-width:1.20000005;stroke-miterlimit:10"/>
  <path class="cls-10" d="m 30,33 0,0" id="path109" inkscape:connector-curvature="0" style="fill:none;stroke:#e6e6e6;stroke-width:1.20000005;stroke-miterlimit:10"/>
  <path class="cls-10" d="m 30,33 0,0" id="path111" inkscape:connector-curvature="0" style="fill:none;stroke:#e6e6e6;stroke-width:1.20000005;stroke-miterlimit:10"/>
  <path class="cls-10" d="m 30,33 0,0" id="path113" inkscape:connector-curvature="0" style="fill:none;stroke:#e6e6e6;stroke-width:1.20000005;stroke-miterlimit:10"/>
  <path class="cls-10" d="m 30,33 0,0" id="path115" inkscape:connector-curvature="0" style="fill:none;stroke:#e6e6e6;stroke-width:1.20000005;stroke-miterlimit:10"/>
  <path class="cls-10" d="m 30,33 0,0" id="path117" inkscape:connector-curvature="0" style="fill:none;stroke:#e6e6e6;stroke-width:1.20000005;stroke-miterlimit:10"/>
  <path class="cls-10" d="m 30,33 0,0" id="path119" inkscape:connector-curvature="0" style="fill:none;stroke:#e6e6e6;stroke-width:1.20000005;stroke-miterlimit:10"/>
  <text class="cls-12" id="text143" style="font-style:normal;font-variant:normal;font-weight:normal;font-stretch:normal;font-size:14px;line-height:0%;font-family:Roboto;-inkscape-font-specification:'Roboto, Normal';font-variant-ligatures:normal;font-variant-caps:normal;font-variant-numeric:normal;font-feature-settings:normal;text-align:center;writing-mode:lr-tb;text-anchor:middle;fill:#808080" x="355.71289" y="184.4481">
    <tspan class="cls-16" x="276.14551" y="184.4481" id="tspan145" style="font-style:normal;font-variant:normal;font-weight:normal;font-stretch:normal;font-size:14px;line-height:125%;font-family:Roboto;-inkscape-font-specification:'Roboto, Normal';font-variant-ligatures:normal;font-variant-caps:normal;font-variant-numeric:normal;font-feature-settings:normal;text-align:center;letter-spacing:0em;writing-mode:lr-tb;text-anchor:middle">60 % de las acciones propiedad de</tspan>
  </text>
  <path class="cls-2" d="M 30,33 Z" id="path171" inkscape:connector-curvature="0" style="fill:#3c31d4"/>
  <text class="cls-12" id="text173" style="font-style:normal;font-variant:normal;font-weight:normal;font-stretch:normal;font-size:14px;line-height:0%;font-family:Roboto;-inkscape-font-specification:'Roboto, Normal';font-variant-ligatures:normal;font-variant-caps:normal;font-variant-numeric:normal;font-feature-settings:normal;text-align:center;writing-mode:lr-tb;text-anchor:middle;fill:#808080" x="280.04199" y="364.44812">
    <tspan class="cls-17" id="tspan175" style="font-style:normal;font-variant:normal;font-weight:normal;font-stretch:normal;font-size:14px;line-height:125%;font-family:Roboto;-inkscape-font-specification:'Roboto, Normal';font-variant-ligatures:normal;font-variant-caps:normal;font-variant-numeric:normal;font-feature-settings:normal;text-align:center;letter-spacing:0em;writing-mode:lr-tb;text-anchor:middle">100 % de las acciones propiedad de</tspan>
  </text>
  <path class="cls-2" d="M 30,33 Z" id="path197" inkscape:connector-curvature="0" style="fill:#3c31d4"/>
  <text class="cls-3" id="text199" style="font-style:normal;font-variant:normal;font-weight:bold;font-stretch:normal;font-size:16.5px;line-height:0%;font-family:Roboto;-inkscape-font-specification:'Roboto, Bold';text-align:start;writing-mode:lr-tb;text-anchor:start;fill:#262737" x="185.70201" y="449.28995">
    <tspan x="198.90199" y="449.28995" id="tspan203" style="font-style:normal;font-variant:normal;font-weight:bold;font-stretch:normal;font-size:16.5px;line-height:125%;font-family:Roboto;-inkscape-font-specification:'Roboto, Bold';text-align:start;writing-mode:lr-tb;text-anchor:start">Empresa 3</tspan>
  </text>
  <path class="cls-8" d="M 30,33 Z" id="path211" inkscape:connector-curvature="0" style="fill:none"/>
  <path d="m 30,33 z m 0,0 z m 0,0 z m 0,0 z m 0,0 z m 0,0 z m 0,0 z m 0,0 z m 0,0 z m 0,0 z m 0,0 z m 0,0 z" id="path213" inkscape:connector-curvature="0"/>
  <path style="fill:none;fill-rule:evenodd;stroke:#3c31d4;stroke-width:1.484869;stroke-linecap:butt;stroke-linejoin:miter;stroke-miterlimit:4;stroke-dasharray:none;stroke-opacity:1;marker-start:url(#Arrow1Mstart)" d="m 112.65036,137.54041 0,85.41086 0,0" id="path12354" inkscape:connector-curvature="0"/>
  <path style="fill:none;fill-rule:evenodd;stroke:#3c31d4;stroke-width:1.44000006;stroke-linecap:butt;stroke-linejoin:miter;stroke-miterlimit:4;stroke-dasharray:none;stroke-opacity:1;marker-start:url(#Arrow1Mstart-2)" d="m 112.65036,316.14939 0,81.08953 0,0" id="path12354-2" inkscape:connector-curvature="0"/>
  <circle class="cls-11" cx="112.65038" cy="444.48996" r="43.965218" id="circle209-2" style="fill:none;stroke:#3c31d4;stroke-width:6.86999989;stroke-miterlimit:10;stroke-dasharray:none;stroke-opacity:1" inkscape:transform-center-x="-10.602233" inkscape:transform-center-y="145.53973"/>
  <ellipse class="cls-11" id="circle209-7-4-8" style="fill:none;stroke:#b2b3b9;stroke-width:1.86959994;stroke-linecap:round;stroke-miterlimit:10;stroke-dasharray:none;stroke-opacity:1" inkscape:transform-center-x="-10.662373" inkscape:transform-center-y="141.00009" cx="112.65038" cy="266.88995" rx="44.214584" ry="42.593861"/>
  <path class="cls-11" id="circle209-7-4" style="fill:none;stroke:#3c31d4;stroke-width:6.32999992;stroke-linecap:round;stroke-miterlimit:10;stroke-dasharray:none;stroke-opacity:1" inkscape:transform-center-x="-10.662374" inkscape:transform-center-y="141.00009" sodipodi:type="arc" sodipodi:cx="112.65037" sodipodi:cy="266.88995" sodipodi:rx="44.214584" sodipodi:ry="42.593861" sodipodi:start="1.0471976" sodipodi:end="4.8171087" d="m 134.75766,303.77732 a 44.214584,42.593861 0 0 1 -51.692625,-5.23396 44.214584,42.593861 0 0 1 -10.8067,-48.97789 44.214584,42.593861 0 0 1 45.013715,-25.03604" sodipodi:open="true"/>
  <circle class="cls-7" cx="112.65035" cy="86.889946" id="ellipse25-6" style="fill:none;stroke:#b2b3b9;stroke-width:1.86959994;stroke-miterlimit:10;stroke-dasharray:none;stroke-opacity:1" r="46.465233"/>
  <flowRoot xml:space="preserve" id="flowRoot5190" style="font-style:normal;font-weight:normal;line-height:0.01%;font-family:sans-serif;letter-spacing:0px;word-spacing:0px;fill:#000000;fill-opacity:1;stroke:none;stroke-width:1px;stroke-linecap:butt;stroke-linejoin:miter;stroke-opacity:1" transform="translate(28.09305,38.490847)"><flowRegion id="flowRegion5192"><rect id="rect5194" width="22.496971" height="67.294052" x="303.01227" y="158.70676"/></flowRegion><flowPara id="flowPara5196" style="font-size:40px;line-height:1.25"> </flowPara></flowRoot>  <path id="path4516" d="m 112.68553,258.16828 0.0225,-6.97752 -17.44333,-0.0566 -0.09772,31.39838 34.88764,0.11328 0.0792,-24.42085 z m -10.5342,20.89838 -3.488273,-0.012 0.0108,-3.48828 3.489253,0.012 z m 0.0225,-6.97753 -3.488273,-0.012 0.0108,-3.48827 3.489253,0.012 z m 0.0225,-6.97752 -3.488273,-0.012 0.0108,-3.48828 3.489253,0.012 z m 0.0225,-6.97753 -3.488273,-0.012 0.0108,-3.48827 3.489253,0.012 z m 6.91011,20.95506 -3.48828,-0.0108 0.0108,-3.49218 3.48926,0.012 z m 0.0225,-6.97753 -3.48828,-0.0108 0.0108,-3.48926 3.48926,0.012 z m 0.0225,-6.97752 -3.48828,-0.0108 0.0108,-3.48926 3.48926,0.012 z m 0.0225,-6.97754 -3.48828,-0.0108 0.0118,-3.48925 3.48926,0.012 z m 17.37688,20.98925 -13.95505,-0.042 0.0108,-3.48925 3.48925,0.012 0.0108,-3.48925 -3.48827,-0.0108 0.0108,-3.48925 3.48926,0.012 0.0108,-3.48926 -3.48829,-0.0108 0.0108,-3.48925 13.95506,0.046 z m -3.4443,-13.96677 -3.48828,-0.0108 -0.012,3.48826 3.48926,0.012 z m -0.0224,6.97753 -3.48828,-0.0108 -0.012,3.48828 3.48926,0.012 z" inkscape:connector-curvature="0"/>
  <path id="path5743" d="m 112.72874,75.436275 a 3.9350819,3.9350819 0 1 1 -3.94847,3.921696 3.9341254,3.9341254 0 0 1 3.94847,-3.921696 m -0.0545,16.864224 c 5.56498,0.01824 11.42073,2.773884 11.4169,3.972396 l -0.007,2.061276 -22.86058,-0.07464 0.007,-2.061288 c 0,-1.1985 5.87775,-3.915948 11.44368,-3.897768 m 0.066,-20.42436 a 7.4952119,7.4952119 0 1 0 7.4713,7.519116 7.493299,7.493299 0 0 0 -7.4713,-7.519116 z m -0.0545,16.864224 c -5.00347,-0.01632 -14.999,2.462052 -15.017174,7.446432 l -0.01817,5.621399 29.980854,0.0956 0.0191,-5.621399 c 0.0172,-4.98246 -9.96205,-7.525824 -14.9646,-7.542084 z" inkscape:connector-curvature="0"/>
  <path id="path4516-2" d="m 112.68553,435.76828 0.0225,-6.97752 -17.443334,-0.0566 -0.09772,31.39838 34.887644,0.11328 0.0792,-24.42085 z m -10.5342,20.89838 -3.488278,-0.012 0.0108,-3.48828 3.489248,0.012 z m 0.0225,-6.97753 -3.488278,-0.012 0.0108,-3.48827 3.489248,0.012 z m 0.0225,-6.97752 -3.488278,-0.012 0.0108,-3.48828 3.489248,0.012 z m 0.0225,-6.97753 -3.488278,-0.012 0.0108,-3.48827 3.489248,0.012 z m 6.9101,20.95506 -3.48827,-0.0108 0.0108,-3.49218 3.48925,0.012 z m 0.0225,-6.97753 -3.48827,-0.0108 0.0108,-3.48926 3.48925,0.012 z m 0.0225,-6.97752 -3.48827,-0.0108 0.0108,-3.48926 3.48925,0.012 z m 0.0225,-6.97754 -3.48827,-0.0108 0.0118,-3.48925 3.48925,0.012 z m 17.37689,20.98925 -13.95505,-0.042 0.0108,-3.48925 3.48925,0.012 0.0108,-3.48925 -3.48828,-0.0108 0.0108,-3.48925 3.48927,0.012 0.0108,-3.48926 -3.48829,-0.0108 0.0108,-3.48925 13.95506,0.046 z m -3.4443,-13.96677 -3.48828,-0.0108 -0.012,3.48826 3.48926,0.012 z m -0.0224,6.97753 -3.48828,-0.0108 -0.012,3.48828 3.48926,0.012 z" inkscape:connector-curvature="0" inkscape:transform-center-x="2.5255008" inkscape:transform-center-y="-135.53528"/>
</svg>
