<?xml version="1.0" encoding="utf-8" standalone="no"?>
<svg xmlns:dc="http://purl.org/dc/elements/1.1/" xmlns:cc="http://creativecommons.org/ns#" xmlns:rdf="http://www.w3.org/1999/02/22-rdf-syntax-ns#" xmlns:svg="http://www.w3.org/2000/svg" xmlns="http://www.w3.org/2000/svg" xmlns:sodipodi="http://sodipodi.sourceforge.net/DTD/sodipodi-0.dtd" xmlns:inkscape="http://www.inkscape.org/namespaces/inkscape" id="Layer_1" data-name="Layer 1" viewBox="0 0 693.78694 367.89422" version="1.1" inkscape:version="0.92.3 (2405546, 2018-03-11)" sodipodi:docname="Diag3-splitContr.svg" width="693.78693" height="367.89423" inkscape:export-filename="/home/kadie/Documents/BODS/DocsWork/Diag3-splitContr.png" inkscape:export-xdpi="114.27276" inkscape:export-ydpi="114.27276">
  <metadata id="metadata217">
    <rdf:RDF>
      <cc:Work rdf:about="">
        <dc:format>image/svg+xml</dc:format>
        <dc:type rdf:resource="http://purl.org/dc/dcmitype/StillImage"/>
        <dc:title>Artboard 1 copy</dc:title>
      </cc:Work>
    </rdf:RDF>
  </metadata>
  <sodipodi:namedview pagecolor="#ffffff" bordercolor="#666666" borderopacity="1" objecttolerance="10" gridtolerance="10" guidetolerance="10" inkscape:pageopacity="0" inkscape:pageshadow="2" inkscape:window-width="1853" inkscape:window-height="1025" id="namedview215" showgrid="false" inkscape:zoom="1.4254587" inkscape:cx="271.65463" inkscape:cy="73.243976" inkscape:window-x="1987" inkscape:window-y="27" inkscape:window-maximized="1" inkscape:current-layer="Layer_1" inkscape:snap-text-baseline="true" inkscape:snap-center="true" inkscape:snap-object-midpoints="true" inkscape:snap-others="true" inkscape:snap-bbox="true" inkscape:snap-bbox-edge-midpoints="true" fit-margin-top="30" fit-margin-right="90" fit-margin-bottom="30" fit-margin-left="30"/>
  <defs id="defs3">
    <marker inkscape:stockid="Arrow1Lend" orient="auto" refY="0" refX="0" id="Arrow1Lend" style="overflow:visible" inkscape:isstock="true">
      <path id="path4371" d="M 0,0 5,-5 -12.5,0 5,5 0,0 Z" style="fill:#3c31d4;fill-opacity:1;fill-rule:evenodd;stroke:#3c31d4;stroke-width:1pt;stroke-opacity:1" transform="matrix(-0.8,0,0,-0.8,-10,0)" inkscape:connector-curvature="0"/>
    </marker>
    <marker inkscape:stockid="Arrow1Mend" orient="auto" refY="0" refX="0" id="Arrow1Mend" style="overflow:visible" inkscape:isstock="true">
      <path id="path4377" d="M 0,0 5,-5 -12.5,0 5,5 0,0 Z" style="fill:#3c31d4;fill-opacity:1;fill-rule:evenodd;stroke:#3c31d4;stroke-width:1pt;stroke-opacity:1" transform="matrix(-0.4,0,0,-0.4,-4,0)" inkscape:connector-curvature="0"/>
    </marker>
    <marker inkscape:stockid="Arrow1Mstart" orient="auto" refY="0" refX="0" id="Arrow1Mstart" style="overflow:visible" inkscape:isstock="true">
      <path id="path4374" d="M 0,0 5,-5 -12.5,0 5,5 0,0 Z" style="fill:#3c31d4;fill-opacity:1;fill-rule:evenodd;stroke:#3c31d4;stroke-width:1pt;stroke-opacity:1" transform="matrix(0.4,0,0,0.4,4,0)" inkscape:connector-curvature="0"/>
    </marker>
    <style id="style5">.cls-1,.cls-10,.cls-11,.cls-7,.cls-8{fill:none;}.cls-1,.cls-11{stroke:#3c31d4;}.cls-1,.cls-10,.cls-11,.cls-7{stroke-miterlimit:10;}.cls-2{fill:#3c31d4;}.cls-3{font-size:16px;fill:#262737;}.cls-12,.cls-3{font-family:HKGrotesk-SemiBold, HK Grotesk;font-weight:700;}.cls-4{letter-spacing:-0.03em;}.cls-5{letter-spacing:-0.02em;}.cls-6{letter-spacing:0em;}.cls-7{stroke:#262737;}.cls-11,.cls-7{stroke-width:5px;}.cls-9{letter-spacing:-0.01em;}.cls-10{stroke:#e6e6e6;}.cls-12{font-size:12px;fill:gray;}.cls-13{letter-spacing:-0.03em;}.cls-14{letter-spacing:-0.01em;}.cls-15{letter-spacing:-0.02em;}.cls-16{letter-spacing:0em;}.cls-17{letter-spacing:0em;}.cls-18{letter-spacing:0em;}</style>
    <marker inkscape:stockid="Arrow1Mstart" orient="auto" refY="0" refX="0" id="Arrow1Mstart-2" style="overflow:visible" inkscape:isstock="true">
      <path inkscape:connector-curvature="0" id="path4374-0" d="M 0,0 5,-5 -12.5,0 5,5 0,0 Z" style="fill:#3c31d4;fill-opacity:1;fill-rule:evenodd;stroke:#3c31d4;stroke-width:1pt;stroke-opacity:1" transform="matrix(0.4,0,0,0.4,4,0)"/>
    </marker>
    <clipPath id="p.1">
      <path style="clip-rule:evenodd" inkscape:connector-curvature="0" id="path3414" d="M 0,0 30,0 30,26 0,26 Z"/>
    </clipPath>
    <clipPath id="p.2">
      <path style="clip-rule:evenodd" inkscape:connector-curvature="0" id="path3423" d="M 0,0 24,0 24,25 0,25 Z"/>
    </clipPath>
    <clipPath id="p.1-3">
      <path style="clip-rule:evenodd" inkscape:connector-curvature="0" id="path3414-8" d="M 0,0 30,0 30,26 0,26 Z"/>
    </clipPath>
    <marker inkscape:stockid="Arrow1Mstart" orient="auto" refY="0" refX="0" id="Arrow1Mstart-8" style="overflow:visible" inkscape:isstock="true">
      <path id="path4374-9" d="M 0,0 5,-5 -12.5,0 5,5 0,0 Z" style="fill:#3c31d4;fill-opacity:1;fill-rule:evenodd;stroke:#3c31d4;stroke-width:1pt;stroke-opacity:1" transform="matrix(0.4,0,0,0.4,4,0)" inkscape:connector-curvature="0"/>
    </marker>
    <clipPath id="p.2-2">
      <path style="clip-rule:evenodd" inkscape:connector-curvature="0" id="path3423-2" d="M 0,0 24,0 24,25 0,25 Z"/>
    </clipPath>
    <marker inkscape:stockid="Arrow1Mstart" orient="auto" refY="0" refX="0" id="Arrow1Mstart-6" style="overflow:visible" inkscape:isstock="true">
      <path id="path4374-3" d="M 0,0 5,-5 -12.5,0 5,5 0,0 Z" style="fill:#3c31d4;fill-opacity:1;fill-rule:evenodd;stroke:#3c31d4;stroke-width:1pt;stroke-opacity:1" transform="matrix(0.4,0,0,0.4,4,0)" inkscape:connector-curvature="0"/>
    </marker>
    <marker inkscape:stockid="Arrow1Mstart" orient="auto" refY="0" refX="0" id="Arrow1Mstart-84" style="overflow:visible" inkscape:isstock="true">
      <path id="path4374-4" d="M 0,0 5,-5 -12.5,0 5,5 0,0 Z" style="fill:#3c31d4;fill-opacity:1;fill-rule:evenodd;stroke:#3c31d4;stroke-width:1pt;stroke-opacity:1" transform="matrix(0.4,0,0,0.4,4,0)" inkscape:connector-curvature="0"/>
    </marker>
  </defs>
  <title id="title7">Artboard 1 copy</title>
  <text class="cls-3" id="text31" style="font-style:normal;font-variant:normal;font-weight:bold;font-stretch:normal;font-size:16.50418663px;line-height:0%;font-family:Roboto;-inkscape-font-specification:'Roboto, Bold';text-align:start;writing-mode:lr-tb;text-anchor:start;fill:#262737" x="283.57455" y="334.28687" transform="scale(0.99974634,1.0002537)">
    <tspan x="296.77786" y="334.28687" id="tspan35" style="font-style:normal;font-variant:normal;font-weight:bold;font-stretch:normal;font-size:16.50418663px;line-height:125%;font-family:Roboto;-inkscape-font-specification:'Roboto, Bold';text-align:start;writing-mode:lr-tb;text-anchor:start">Empresa 2</tspan>
  </text>
  <path style="fill:none;fill-rule:evenodd;stroke:#3c31d4;stroke-width:1.23739088;stroke-linecap:butt;stroke-linejoin:miter;stroke-miterlimit:4;stroke-dasharray:none;stroke-opacity:1;marker-start:url(#Arrow1Mstart)" d="m 419.22587,127.94399 0,85.45421 0,0 0,43.95568 -37.10635,0" id="path12354" inkscape:connector-curvature="0"/>
  <ellipse class="cls-11" id="circle209-7-4-8" style="fill:none;stroke:#b2b3b9;stroke-width:1.55799997;stroke-linecap:round;stroke-miterlimit:10;stroke-dasharray:none;stroke-opacity:1" inkscape:transform-center-x="-10.662371" inkscape:transform-center-y="141.07165" cx="338.40982" cy="260.72824" rx="44.214584" ry="42.615482"/>
  <path class="cls-11" id="circle209-7-4" style="fill:none;stroke:#3c31d4;stroke-width:5.2750001;stroke-linecap:round;stroke-miterlimit:10;stroke-dasharray:none;stroke-opacity:1" inkscape:transform-center-x="10.66237" inkscape:transform-center-y="141.07165" sodipodi:type="arc" sodipodi:cx="-338.40982" sodipodi:cy="260.72824" sodipodi:rx="44.214584" sodipodi:ry="42.615482" sodipodi:start="3.0543262" sodipodi:end="4.9392818" d="m -382.45616,264.44242 a 44.214584,42.615482 0 0 1 15.03896,-35.87649 44.214584,42.615482 0 0 1 38.9535,-9.36094" sodipodi:open="true" transform="scale(-1,1)"/>
  <ellipse class="cls-7" cx="419.22592" cy="77.267822" id="ellipse25-6" style="fill:none;stroke:#b2b3b9;stroke-width:1.55799997;stroke-miterlimit:10;stroke-dasharray:none;stroke-opacity:1" rx="46.465233" ry="46.488819"/>
  <ellipse class="cls-11" id="circle209-7-4-3-8" style="fill:none;stroke:#3c31d4;stroke-width:1.55799997;stroke-linecap:round;stroke-miterlimit:10;stroke-dasharray:none;stroke-opacity:1" inkscape:transform-center-x="-7.4064841" inkscape:transform-center-y="101.72215" cx="338.40982" cy="260.72824" rx="30.712969" ry="30.728559"/>
  <path class="cls-11" id="circle209-7-4-3" style="fill:none;stroke:#3c31d4;stroke-width:5.2750001;stroke-linecap:round;stroke-miterlimit:10;stroke-dasharray:none;stroke-opacity:1" inkscape:transform-center-x="-7.4064842" inkscape:transform-center-y="101.72215" sodipodi:type="arc" sodipodi:cx="338.40982" sodipodi:cy="260.72824" sodipodi:rx="30.712969" sodipodi:ry="30.728559" sodipodi:start="1.0471976" sodipodi:end="4.8171087" d="m 353.7663,287.33995 a 30.712969,30.728559 0 0 1 -35.90747,-3.77594 30.712969,30.728559 0 0 1 -7.5067,-35.3342 30.712969,30.728559 0 0 1 31.26807,-18.06179" sodipodi:open="true"/>
  <ellipse class="cls-7" cx="253.62587" cy="77.267822" id="ellipse25-6-6" style="fill:none;stroke:#b2b3b9;stroke-width:1.55799997;stroke-miterlimit:10;stroke-dasharray:none;stroke-opacity:1" rx="46.465233" ry="46.488819"/>
  <path style="fill:none;fill-rule:evenodd;stroke:#3c31d4;stroke-width:1.23739088;stroke-linecap:butt;stroke-linejoin:round;stroke-miterlimit:4;stroke-dasharray:none;stroke-opacity:1;marker-start:url(#Arrow1Mstart-84)" d="m 253.62589,127.94385 0,85.4542 0,0 0,44.79809 53.57038,0 0,0" id="path12354-8" inkscape:connector-curvature="0"/>
  <text xml:space="preserve" style="font-style:normal;font-variant:normal;font-weight:normal;font-stretch:normal;font-size:16px;line-height:0%;font-family:Roboto;-inkscape-font-specification:'Roboto, Normal';font-variant-ligatures:normal;font-variant-caps:normal;font-variant-numeric:normal;font-feature-settings:normal;text-align:end;letter-spacing:0px;word-spacing:0px;writing-mode:lr-tb;text-anchor:end;fill:#000000;fill-opacity:1;stroke:none;stroke-width:1px;stroke-linecap:butt;stroke-linejoin:miter;stroke-opacity:1" x="249.79645" y="178.01204" id="text15734" transform="scale(0.99974636,1.0002537)"><tspan sodipodi:role="line" id="tspan15736" x="249.79645" y="178.01204" style="color:#000000;font-style:normal;font-variant:normal;font-weight:normal;font-stretch:normal;font-size:16px;line-height:125%;font-family:Roboto;-inkscape-font-specification:'Roboto, Normal';font-variant-ligatures:normal;font-variant-caps:normal;font-variant-numeric:normal;font-feature-settings:normal;text-indent:0;text-align:end;text-decoration:none;text-decoration-line:none;text-decoration-style:solid;text-decoration-color:#000000;letter-spacing:0px;word-spacing:0px;text-transform:none;writing-mode:lr-tb;direction:ltr;baseline-shift:baseline;text-anchor:end;white-space:normal;clip-rule:nonzero;display:inline;overflow:visible;visibility:visible;opacity:1;isolation:auto;mix-blend-mode:normal;color-interpolation:sRGB;color-interpolation-filters:linearRGB;solid-color:#000000;solid-opacity:1;fill:#808080;fill-opacity:1;fill-rule:nonzero;stroke:none;stroke-width:1px;stroke-linecap:butt;stroke-linejoin:miter;stroke-miterlimit:4;stroke-dasharray:none;stroke-dashoffset:0;stroke-opacity:1;color-rendering:auto;image-rendering:auto;shape-rendering:auto;text-rendering:auto;enable-background:accumulate">60 % de los directores designados por</tspan></text>
  <text xml:space="preserve" style="font-style:normal;font-weight:normal;line-height:0%;font-family:sans-serif;letter-spacing:0px;word-spacing:0px;fill:#000000;fill-opacity:1;stroke:none;stroke-width:1px;stroke-linecap:butt;stroke-linejoin:miter;stroke-opacity:1" x="427.34491" y="178.01204" id="text15738" transform="scale(0.99974636,1.0002537)"><tspan sodipodi:role="line" id="tspan15740" x="427.34491" y="178.01204" style="color:#000000;font-style:normal;font-variant:normal;font-weight:normal;font-stretch:normal;font-size:16px;line-height:125%;font-family:Roboto;-inkscape-font-specification:'Roboto, Normal';font-variant-ligatures:normal;font-variant-caps:normal;font-variant-numeric:normal;font-feature-settings:normal;text-indent:0;text-align:start;text-decoration:none;text-decoration-line:none;text-decoration-style:solid;text-decoration-color:#000000;letter-spacing:0px;word-spacing:0px;text-transform:none;writing-mode:lr-tb;direction:ltr;baseline-shift:baseline;text-anchor:start;white-space:normal;clip-rule:nonzero;display:inline;overflow:visible;visibility:visible;opacity:1;isolation:auto;mix-blend-mode:normal;color-interpolation:sRGB;color-interpolation-filters:linearRGB;solid-color:#000000;solid-opacity:1;fill:#808080;fill-opacity:1;fill-rule:nonzero;stroke:none;stroke-width:1px;stroke-linecap:butt;stroke-linejoin:miter;stroke-miterlimit:4;stroke-dasharray:none;stroke-dashoffset:0;stroke-opacity:1;color-rendering:auto;image-rendering:auto;shape-rendering:auto;text-rendering:auto;enable-background:accumulate">30 % de las acciones propiedad de</tspan></text>
  <text xml:space="preserve" style="font-style:normal;font-variant:normal;font-weight:bold;font-stretch:normal;font-size:16.50399971px;line-height:0%;font-family:Roboto;-inkscape-font-specification:'Roboto, Bold';font-variant-ligatures:normal;font-variant-caps:normal;font-variant-numeric:normal;font-feature-settings:normal;text-align:start;letter-spacing:0px;word-spacing:0px;writing-mode:lr-tb;text-anchor:start;fill:#000000;fill-opacity:1;stroke:none;stroke-width:1px;stroke-linecap:butt;stroke-linejoin:miter;stroke-opacity:1" x="477.50058" y="79.719147" id="text15742" transform="scale(0.99974636,1.0002537)"><tspan sodipodi:role="line" id="tspan15744" x="477.50058" y="79.719147" style="color:#000000;font-style:normal;font-variant:normal;font-weight:bold;font-stretch:normal;font-size:16.50399971px;line-height:125%;font-family:Roboto;-inkscape-font-specification:'Roboto, Bold';font-variant-ligatures:normal;font-variant-caps:normal;font-variant-numeric:normal;font-feature-settings:normal;text-indent:0;text-align:start;text-decoration:none;text-decoration-line:none;text-decoration-style:solid;text-decoration-color:#000000;letter-spacing:0px;word-spacing:0px;text-transform:none;writing-mode:lr-tb;direction:ltr;baseline-shift:baseline;text-anchor:start;white-space:normal;clip-rule:nonzero;display:inline;overflow:visible;visibility:visible;opacity:1;isolation:auto;mix-blend-mode:normal;color-interpolation:sRGB;color-interpolation-filters:linearRGB;solid-color:#000000;solid-opacity:1;fill:#000000;fill-opacity:1;fill-rule:nonzero;stroke:none;stroke-width:1px;stroke-linecap:butt;stroke-linejoin:miter;stroke-miterlimit:4;stroke-dasharray:none;stroke-dashoffset:0;stroke-opacity:1;color-rendering:auto;image-rendering:auto;shape-rendering:auto;text-rendering:auto;enable-background:accumulate">Persona B</tspan></text>
  <text xml:space="preserve" style="font-style:normal;font-weight:normal;line-height:0%;font-family:sans-serif;text-align:center;letter-spacing:0px;word-spacing:0px;text-anchor:middle;fill:#000000;fill-opacity:1;stroke:none;stroke-width:1px;stroke-linecap:butt;stroke-linejoin:miter;stroke-opacity:1" x="196.34167" y="71.72113" id="text15746" transform="scale(0.99974636,1.0002537)"><tspan sodipodi:role="line" id="tspan15748" x="196.34167" y="71.72113" style="font-style:normal;font-variant:normal;font-weight:bold;font-stretch:normal;font-size:16.50399971px;line-height:125%;font-family:Roboto;-inkscape-font-specification:'Roboto, Bold';font-variant-ligatures:normal;font-variant-caps:normal;font-variant-numeric:normal;font-feature-settings:normal;text-align:end;writing-mode:lr-tb;text-anchor:end">Persona C</tspan><tspan sodipodi:role="line" x="202.07939" y="92.351128" id="tspan15750" style="font-style:normal;font-variant:normal;font-weight:bold;font-stretch:normal;font-size:16.50399971px;line-height:125%;font-family:Roboto;-inkscape-font-specification:'Roboto, Bold';font-variant-ligatures:normal;font-variant-caps:normal;font-variant-numeric:normal;font-feature-settings:normal;text-align:end;writing-mode:lr-tb;text-anchor:end">(Director</tspan><tspan sodipodi:role="line" x="196.34167" y="112.98113" style="font-style:normal;font-variant:normal;font-weight:bold;font-stretch:normal;font-size:16.50399971px;line-height:125%;font-family:Roboto;-inkscape-font-specification:'Roboto, Bold';font-variant-ligatures:normal;font-variant-caps:normal;font-variant-numeric:normal;font-feature-settings:normal;text-align:end;writing-mode:lr-tb;text-anchor:end" id="tspan5777">Ejecutivo)</tspan></text>
  <path id="path4516" d="m 338.44141,252.8787 0.0203,-6.27977 -15.699,-0.0509 -0.0879,28.25854 31.39888,0.10196 0.0713,-21.97877 z m -9.48078,18.80854 -3.13945,-0.0108 0.01,-3.13945 3.14033,0.0108 z m 0.0202,-6.27977 -3.13945,-0.0108 0.01,-3.13945 3.14033,0.0108 z m 0.0203,-6.27977 -3.13945,-0.0108 0.01,-3.13945 3.14033,0.0108 z m 0.0202,-6.27978 -3.13945,-0.0108 0.01,-3.13944 3.14033,0.0108 z m 6.2191,18.85955 -3.13945,-0.01 0.01,-3.14297 3.14033,0.0108 z m 0.0202,-6.27977 -3.13945,-0.01 0.01,-3.14034 3.14033,0.0108 z m 0.0203,-6.27977 -3.13945,-0.01 0.01,-3.14033 3.14033,0.0108 z m 0.0202,-6.27979 -3.13945,-0.01 0.0106,-3.14032 3.14033,0.0108 z m 15.63919,18.89033 -12.55955,-0.0378 0.01,-3.14033 3.14033,0.0108 0.01,-3.14032 -3.13944,-0.01 0.01,-3.14033 3.14033,0.0108 0.01,-3.14033 -3.13946,-0.01 0.01,-3.14032 12.55955,0.0414 z m -3.09987,-12.57009 -3.13945,-0.01 -0.0108,3.13943 3.14033,0.0108 z m -0.0202,6.27977 -3.13945,-0.01 -0.0108,3.13945 3.14033,0.0108 z" inkscape:connector-curvature="0"/>
  <path id="path5743" d="m 253.70426,65.814133 a 3.9350819,3.9350819 0 1 1 -3.94847,3.92169 3.9341254,3.9341254 0 0 1 3.94847,-3.92169 m -0.0545,16.86422 c 5.56498,0.0182 11.42073,2.77388 11.4169,3.9724 l -0.007,2.06127 -22.86058,-0.0746 0.007,-2.06129 c 0,-1.1985 5.87775,-3.91594 11.44368,-3.89776 m 0.066,-20.42436 a 7.4952119,7.4952119 0 1 0 7.4713,7.51911 7.493299,7.493299 0 0 0 -7.4713,-7.51911 z m -0.0545,16.86422 c -5.00347,-0.0163 -14.999,2.46205 -15.01718,7.44643 l -0.0182,5.6214 29.98086,0.0956 0.0191,-5.6214 c 0.0172,-4.98246 -9.96205,-7.52582 -14.9646,-7.54208 z" inkscape:connector-curvature="0"/>
  <path id="path5743-5" d="m 419.3043,65.814133 a 3.9350819,3.9350819 0 1 1 -3.94847,3.92169 3.9341254,3.9341254 0 0 1 3.94847,-3.92169 m -0.0545,16.86422 c 5.56498,0.0182 11.42073,2.77388 11.4169,3.9724 l -0.007,2.06127 -22.86058,-0.0746 0.007,-2.06129 c 0,-1.1985 5.87775,-3.91594 11.44368,-3.89776 m 0.066,-20.42436 a 7.4952119,7.4952119 0 1 0 7.4713,7.51911 7.493299,7.493299 0 0 0 -7.4713,-7.51911 z m -0.0545,16.86422 c -5.00347,-0.0163 -14.999,2.46205 -15.01718,7.44643 l -0.0182,5.6214 29.98086,0.0956 0.0191,-5.6214 c 0.0172,-4.98246 -9.96205,-7.52582 -14.9646,-7.54208 z" inkscape:connector-curvature="0"/>
</svg>
